SplineFontDB: 3.2
FontName: FourPixelsFont
FullName: Four Pixels Font
FamilyName: FourPixelsFont
Weight: Medium
Copyright: (c) - 2024 Mounir Tohami (Whales State) https://mounirtohami.itch.io
Version: 001.000
ItalicAngle: 0
UnderlinePosition: -148
UnderlineWidth: 49
Ascent: 1000
Descent: 0
InvalidEm: 0
sfntRevision: 0x00010000
LayerCount: 2
Layer: 0 1 "Back" 1
Layer: 1 1 "Fore" 0
XUID: [1021 465 1097079576 29882]
StyleMap: 0x0040
FSType: 0
OS2Version: 1
OS2_WeightWidthSlopeOnly: 0
OS2_UseTypoMetrics: 0
CreationTime: 1280473793
ModificationTime: 1710295758
PfmFamily: 17
TTFWeight: 500
TTFWidth: 5
LineGap: 500
VLineGap: 0
Panose: 2 0 6 3 0 0 0 0 0 0
OS2TypoAscent: 1000
OS2TypoAOffset: 0
OS2TypoDescent: 0
OS2TypoDOffset: 0
OS2TypoLinegap: 500
OS2WinAscent: 1000
OS2WinAOffset: 0
OS2WinDescent: 500
OS2WinDOffset: 0
HheadAscent: 1000
HheadAOffset: 0
HheadDescent: 0
HheadDOffset: 0
OS2SubXSize: 649
OS2SubYSize: 699
OS2SubXOff: 0
OS2SubYOff: 140
OS2SupXSize: 649
OS2SupYSize: 699
OS2SupXOff: 0
OS2SupYOff: 479
OS2StrikeYSize: 50
OS2StrikeYPos: 259
OS2Vendor: '2ttf'
OS2CodePages: 00000001.00000000
OS2UnicodeRanges: 00000003.00000000.00000000.00000000
MarkAttachClasses: 1
DEI: 91125
ShortTable: cvt  2
  34
  648
EndShort
ShortTable: maxp 16
  1
  0
  99
  27
  6
  0
  0
  2
  0
  1
  1
  0
  64
  46
  0
  0
EndShort
LangName: 1033 "" "" "" "MounirTohami:FourPixelsFont" "" "Version 001.000" "" "" "" "Mounir Tohami" "This font was created using PixelForge and Edited with FontForge for final release." "https://mounirtohami.itch.io/four-pixels-font" "https://mounirtohami.itch.io" "SIL Open Font License (OFL)" "https://openfontlicense.org/"
GaspTable: 1 65535 0 0
Encoding: UnicodeBmp
UnicodeInterp: none
NameList: AGL For New Fonts
DisplaySize: -36
AntiAlias: 1
FitToEm: 0
WinInfo: 0 51 17
BeginPrivate: 0
EndPrivate
BeginChars: 65539 99

StartChar: .notdef
Encoding: 65536 -1 0
Width: 1460
GlyphClass: 1
Flags: W
LayerCount: 2
Fore
SplineSet
133 0 m 1,0,-1
 133 2664 l 1,1,-1
 1195 2664 l 1,2,-1
 1195 0 l 1,3,-1
 133 0 l 1,0,-1
266 133 m 1,4,-1
 1062 133 l 1,5,-1
 1062 2531 l 1,6,-1
 266 2531 l 1,7,-1
 266 133 l 1,4,-1
EndSplineSet
EndChar

StartChar: exclam
Encoding: 33 33 4
Width: 500
GlyphClass: 2
Flags: W
LayerCount: 2
Fore
SplineSet
0 0 m 1,0,-1
 0 250 l 1,1,-1
 250 250 l 1,2,-1
 250 0 l 1,3,-1
 0 0 l 1,0,-1
0 500 m 1,4,5
 0 500 0 500 0 1000 c 1,6,-1
 250 1000 l 1,7,-1
 250 500 l 1,8,-1
 0 500 l 1,4,5
EndSplineSet
EndChar

StartChar: quotedbl
Encoding: 34 34 5
Width: 1000
GlyphClass: 2
Flags: W
LayerCount: 2
Fore
SplineSet
500 750 m 1,0,-1
 500 1000 l 1,1,-1
 750 1000 l 1,2,-1
 750 750 l 1,3,-1
 500 750 l 1,0,-1
0 750 m 1,4,-1
 0 1000 l 1,5,-1
 250 1000 l 1,6,-1
 250 750 l 1,7,-1
 0 750 l 1,4,-1
EndSplineSet
EndChar

StartChar: numbersign
Encoding: 35 35 6
Width: 1500
GlyphClass: 2
Flags: W
LayerCount: 2
Fore
SplineSet
750 0 m 1,0,-1
 750 250 l 1,1,-1
 500 250 l 1,2,-1
 500 0 l 1,3,-1
 250 0 l 1,4,-1
 250 250 l 1,5,-1
 0 250 l 1,6,7
 0 250 0 250 0 750 c 1,8,-1
 250 750 l 1,9,-1
 250 1000 l 1,10,-1
 500 1000 l 1,11,-1
 500 750 l 1,12,-1
 750 750 l 1,13,-1
 750 1000 l 1,14,-1
 1000 1000 l 1,15,-1
 1000 750 l 1,16,-1
 1250 750 l 1,17,-1
 1250 250 l 1,18,-1
 1000 250 l 1,19,-1
 1000 0 l 1,20,-1
 750 0 l 1,0,-1
EndSplineSet
EndChar

StartChar: dollar
Encoding: 36 36 7
Width: 1000
GlyphClass: 2
Flags: W
LayerCount: 2
Fore
SplineSet
500 0 m 1,0,-1
 250 0 l 1,1,-1
 0 0 l 1,2,-1
 0 250 l 1,3,-1
 250 250 l 1,4,-1
 250 500 l 1,5,-1
 0 500 l 1,6,-1
 0 750 l 1,7,-1
 0 1000 l 1,8,-1
 250 1000 l 1,9,-1
 500 1000 l 1,10,-1
 750 1000 l 1,11,-1
 750 750 l 1,12,-1
 500 750 l 1,13,-1
 500 500 l 1,14,-1
 750 500 l 1,15,-1
 750 250 l 1,16,-1
 750 0 l 1,17,-1
 500 0 l 1,0,-1
EndSplineSet
EndChar

StartChar: percent
Encoding: 37 37 8
Width: 1250
GlyphClass: 2
Flags: W
LayerCount: 2
Fore
SplineSet
750 0 m 1,0,-1
 750 250 l 1,1,-1
 1000 250 l 1,2,-1
 1000 0 l 1,3,-1
 750 0 l 1,0,-1
0 0 m 1,4,-1
 0 250 l 1,5,-1
 250 250 l 1,6,-1
 250 0 l 1,7,-1
 0 0 l 1,4,-1
0 750 m 1,8,-1
 0 1000 l 1,9,-1
 250 1000 l 1,10,-1
 250 750 l 1,11,-1
 0 750 l 1,8,-1
250 250 m 1,12,-1
 250 500 l 1,13,-1
 500 500 l 1,14,-1
 500 250 l 1,15,-1
 250 250 l 1,12,-1
500 500 m 1,16,-1
 500 750 l 1,17,-1
 750 750 l 1,18,-1
 750 500 l 1,19,-1
 500 500 l 1,16,-1
750 750 m 1,20,-1
 750 1000 l 1,21,-1
 1000 1000 l 1,22,-1
 1000 750 l 1,23,-1
 750 750 l 1,20,-1
EndSplineSet
EndChar

StartChar: ampersand
Encoding: 38 38 9
Width: 1250
GlyphClass: 2
Flags: W
LayerCount: 2
Fore
SplineSet
750 0 m 1,0,-1
 750 250 l 1,1,-1
 1000 250 l 1,2,-1
 1000 0 l 1,3,-1
 750 0 l 1,0,-1
250 0 m 1,4,-1
 250 250 l 1,5,-1
 500 250 l 1,6,-1
 500 0 l 1,7,-1
 250 0 l 1,4,-1
500 250 m 1,8,9
 500 250 500 250 500 750 c 1,10,-1
 750 750 l 1,11,-1
 750 250 l 1,12,-1
 500 250 l 1,8,9
250 250 m 1,13,-1
 0 250 l 1,14,15
 0 250 0 250 0 750 c 1,16,-1
 250 750 l 1,17,18
 250 750 250 750 250 250 c 1,13,-1
750 750 m 1,19,-1
 750 1000 l 1,20,-1
 1000 1000 l 1,21,-1
 1000 750 l 1,22,-1
 750 750 l 1,19,-1
250 750 m 1,23,-1
 250 1000 l 1,24,-1
 500 1000 l 1,25,-1
 500 750 l 1,26,-1
 250 750 l 1,23,-1
EndSplineSet
EndChar

StartChar: quotesingle
Encoding: 39 39 10
Width: 500
GlyphClass: 2
Flags: W
LayerCount: 2
Fore
SplineSet
0 750 m 1,0,-1
 0 1000 l 1,1,-1
 250 1000 l 1,2,-1
 250 750 l 1,3,-1
 0 750 l 1,0,-1
EndSplineSet
EndChar

StartChar: parenleft
Encoding: 40 40 11
Width: 750
GlyphClass: 2
Flags: W
LayerCount: 2
Fore
SplineSet
250 0 m 1,0,-1
 250 250 l 1,1,-1
 500 250 l 1,2,-1
 500 0 l 1,3,-1
 250 0 l 1,0,-1
250 250 m 1,4,-1
 0 250 l 1,5,6
 0 250 0 250 0 750 c 1,7,-1
 250 750 l 1,8,-1
 250 250 l 1,4,-1
250 750 m 1,9,-1
 250 1000 l 1,10,-1
 500 1000 l 1,11,-1
 500 750 l 1,12,-1
 250 750 l 1,9,-1
EndSplineSet
EndChar

StartChar: parenright
Encoding: 41 41 12
Width: 750
GlyphClass: 2
Flags: W
LayerCount: 2
Fore
SplineSet
0 0 m 1,0,-1
 0 250 l 1,1,-1
 250 250 l 1,2,-1
 250 0 l 1,3,-1
 0 0 l 1,0,-1
250 250 m 1,4,5
 250 250 250 250 250 750 c 1,6,-1
 500 750 l 1,7,-1
 500 250 l 1,8,-1
 250 250 l 1,4,5
250 750 m 1,9,-1
 0 750 l 1,10,-1
 0 1000 l 1,11,-1
 250 1000 l 1,12,-1
 250 750 l 1,9,-1
EndSplineSet
EndChar

StartChar: asterisk
Encoding: 42 42 13
Width: 1000
GlyphClass: 2
Flags: W
LayerCount: 2
Fore
SplineSet
500 250 m 1,0,-1
 500 500 l 1,1,-1
 750 500 l 1,2,-1
 750 250 l 1,3,-1
 500 250 l 1,0,-1
0 250 m 1,4,-1
 0 500 l 1,5,-1
 250 500 l 1,6,-1
 250 250 l 1,7,-1
 0 250 l 1,4,-1
250 500 m 1,8,-1
 250 750 l 1,9,-1
 500 750 l 1,10,-1
 500 500 l 1,11,-1
 250 500 l 1,8,-1
500 750 m 1,12,-1
 500 1000 l 1,13,-1
 750 1000 l 1,14,-1
 750 750 l 1,15,-1
 500 750 l 1,12,-1
250 750 m 1,16,-1
 0 750 l 1,17,-1
 0 1000 l 1,18,-1
 250 1000 l 1,19,-1
 250 750 l 1,16,-1
EndSplineSet
EndChar

StartChar: plus
Encoding: 43 43 14
Width: 1000
GlyphClass: 2
Flags: W
LayerCount: 2
Fore
SplineSet
250 0 m 1,0,-1
 250 250 l 1,1,-1
 0 250 l 1,2,-1
 0 500 l 1,3,-1
 250 500 l 1,4,-1
 250 750 l 1,5,-1
 500 750 l 1,6,-1
 500 500 l 1,7,-1
 750 500 l 1,8,-1
 750 250 l 1,9,-1
 500 250 l 1,10,-1
 500 0 l 1,11,-1
 250 0 l 1,0,-1
EndSplineSet
EndChar

StartChar: comma
Encoding: 44 44 15
Width: 500
GlyphClass: 2
Flags: W
LayerCount: 2
Fore
SplineSet
0 0 m 1,0,1
 0 0 0 0 0 500 c 1,2,-1
 250 500 l 1,3,-1
 250 0 l 1,4,-1
 0 0 l 1,0,1
EndSplineSet
EndChar

StartChar: hyphen
Encoding: 45 45 16
Width: 750
GlyphClass: 2
Flags: W
LayerCount: 2
Fore
SplineSet
500 500 m 1,0,-1
 500 250 l 1,1,2
 500 250 500 250 0 250 c 1,3,-1
 0 500 l 1,4,-1
 500 500 l 1,0,-1
EndSplineSet
EndChar

StartChar: period
Encoding: 46 46 17
Width: 500
GlyphClass: 2
Flags: W
LayerCount: 2
Fore
SplineSet
0 0 m 1,0,-1
 0 250 l 1,1,-1
 250 250 l 1,2,-1
 250 0 l 1,3,-1
 0 0 l 1,0,-1
EndSplineSet
EndChar

StartChar: slash
Encoding: 47 47 18
Width: 750
GlyphClass: 2
Flags: W
LayerCount: 2
Fore
SplineSet
0 0 m 1,0,1
 0 0 0 0 0 500 c 1,2,-1
 250 500 l 1,3,-1
 250 0 l 1,4,-1
 0 0 l 1,0,1
250 500 m 1,5,6
 250 500 250 500 250 1000 c 1,7,-1
 500 1000 l 1,8,9
 500 1000 500 1000 500 500 c 1,10,-1
 250 500 l 1,5,6
EndSplineSet
EndChar

StartChar: zero
Encoding: 48 48 19
Width: 1000
GlyphClass: 2
Flags: W
LayerCount: 2
Fore
SplineSet
500 0 m 1,0,-1
 250 0 l 1,1,-1
 0 0 l 1,2,-1
 0 250 l 1,3,-1
 0 500 l 1,4,-1
 0 750 l 1,5,-1
 0 1000 l 1,6,-1
 250 1000 l 1,7,-1
 500 1000 l 1,8,-1
 750 1000 l 1,9,-1
 750 750 l 1,10,-1
 750 500 l 1,11,-1
 750 250 l 1,12,-1
 750 0 l 1,13,-1
 500 0 l 1,0,-1
500 250 m 1,14,-1
 500 500 l 1,15,-1
 500 750 l 1,16,-1
 250 750 l 1,17,-1
 250 500 l 1,18,-1
 250 250 l 1,19,-1
 500 250 l 1,14,-1
EndSplineSet
EndChar

StartChar: one
Encoding: 49 49 20
Width: 1000
GlyphClass: 2
Flags: W
LayerCount: 2
Fore
SplineSet
0 0 m 1,0,-1
 0 250 l 1,1,-1
 250 250 l 1,2,3
 250 250 250 250 250 750 c 1,4,-1
 0 750 l 1,5,-1
 0 1000 l 1,6,7
 0 1000 0 1000 500 1000 c 1,8,9
 500 1000 500 1000 500 250 c 1,10,-1
 750 250 l 1,11,-1
 750 0 l 1,12,-1
 0 0 l 1,0,-1
EndSplineSet
EndChar

StartChar: two
Encoding: 50 50 21
Width: 1000
GlyphClass: 2
Flags: W
LayerCount: 2
Fore
SplineSet
0 0 m 1,0,-1
 0 250 l 1,1,-1
 250 250 l 1,2,-1
 250 500 l 1,3,-1
 500 500 l 1,4,-1
 500 250 l 1,5,-1
 750 250 l 1,6,-1
 750 0 l 1,7,-1
 0 0 l 1,0,-1
500 500 m 1,8,-1
 500 750 l 1,9,-1
 750 750 l 1,10,-1
 750 500 l 1,11,-1
 500 500 l 1,8,-1
500 750 m 1,12,13
 500 750 500 750 0 750 c 1,14,-1
 0 1000 l 1,15,16
 0 1000 0 1000 500 1000 c 1,17,-1
 500 750 l 1,12,13
EndSplineSet
EndChar

StartChar: three
Encoding: 51 51 22
Width: 1000
GlyphClass: 2
Flags: W
LayerCount: 2
Fore
SplineSet
0 0 m 1,0,-1
 0 250 l 1,1,2
 0 250 0 250 500 250 c 1,3,-1
 500 500 l 1,4,-1
 250 500 l 1,5,-1
 250 750 l 1,6,-1
 0 750 l 1,7,-1
 0 1000 l 1,8,9
 0 1000 0 1000 750 1000 c 1,10,11
 750 1000 750 1000 750 0 c 1,12,-1
 0 0 l 1,0,-1
EndSplineSet
EndChar

StartChar: four
Encoding: 52 52 23
Width: 1000
GlyphClass: 2
Flags: W
LayerCount: 2
Fore
SplineSet
500 0 m 1,0,-1
 500 250 l 1,1,2
 500 250 500 250 0 250 c 1,3,4
 0 250 0 250 0 1000 c 1,5,-1
 250 1000 l 1,6,7
 250 1000 250 1000 250 500 c 1,8,-1
 500 500 l 1,9,10
 500 500 500 500 500 1000 c 1,11,-1
 750 1000 l 1,12,-1
 750 0 l 1,13,-1
 500 0 l 1,0,-1
EndSplineSet
EndChar

StartChar: five
Encoding: 53 53 24
Width: 1000
GlyphClass: 2
Flags: W
LayerCount: 2
Fore
SplineSet
500 250 m 1,0,-1
 500 0 l 1,1,2
 500 0 500 0 0 0 c 1,3,-1
 0 250 l 1,4,-1
 500 250 l 1,0,-1
500 250 m 1,5,-1
 500 500 l 1,6,-1
 750 500 l 1,7,-1
 750 250 l 1,8,-1
 500 250 l 1,5,-1
500 500 m 1,9,10
 500 500 500 500 0 500 c 1,11,12
 0 500 0 500 0 1000 c 1,13,14
 0 1000 0 1000 750 1000 c 1,15,-1
 750 750 l 1,16,-1
 500 750 l 1,17,-1
 500 500 l 1,9,10
EndSplineSet
EndChar

StartChar: six
Encoding: 54 54 25
Width: 1000
GlyphClass: 2
Flags: W
LayerCount: 2
Fore
SplineSet
0 0 m 1,0,1
 0 0 0 0 0 1000 c 1,2,3
 0 1000 0 1000 750 1000 c 1,4,-1
 750 750 l 1,5,6
 750 750 750 750 250 750 c 1,7,-1
 250 500 l 1,8,9
 250 500 250 500 750 500 c 1,10,11
 750 500 750 500 750 0 c 1,12,-1
 0 0 l 1,0,1
EndSplineSet
EndChar

StartChar: seven
Encoding: 55 55 26
Width: 1000
GlyphClass: 2
Flags: W
LayerCount: 2
Fore
SplineSet
250 0 m 1,0,1
 250 0 250 0 250 500 c 1,2,-1
 500 500 l 1,3,-1
 500 0 l 1,4,-1
 250 0 l 1,0,1
500 500 m 1,5,-1
 500 750 l 1,6,7
 500 750 500 750 0 750 c 1,8,-1
 0 1000 l 1,9,10
 0 1000 0 1000 750 1000 c 1,11,12
 750 1000 750 1000 750 500 c 1,13,-1
 500 500 l 1,5,-1
EndSplineSet
EndChar

StartChar: eight
Encoding: 56 56 27
Width: 1000
GlyphClass: 2
Flags: W
LayerCount: 2
Fore
SplineSet
0 0 m 1,0,1
 0 0 0 0 0 1000 c 1,2,3
 0 1000 0 1000 750 1000 c 1,4,5
 750 1000 750 1000 750 0 c 1,6,-1
 0 0 l 1,0,1
500 500 m 1,7,-1
 500 750 l 1,8,-1
 250 750 l 1,9,-1
 250 500 l 1,10,-1
 500 500 l 1,7,-1
EndSplineSet
EndChar

StartChar: nine
Encoding: 57 57 28
Width: 1000
GlyphClass: 2
Flags: W
LayerCount: 2
Fore
SplineSet
500 0 m 1,0,-1
 250 0 l 1,1,-1
 0 0 l 1,2,-1
 0 250 l 1,3,-1
 250 250 l 1,4,-1
 500 250 l 1,5,-1
 500 500 l 1,6,-1
 250 500 l 1,7,-1
 0 500 l 1,8,-1
 0 750 l 1,9,-1
 0 1000 l 1,10,-1
 250 1000 l 1,11,-1
 500 1000 l 1,12,-1
 750 1000 l 1,13,-1
 750 750 l 1,14,-1
 750 500 l 1,15,-1
 750 250 l 1,16,-1
 750 0 l 1,17,-1
 500 0 l 1,0,-1
EndSplineSet
EndChar

StartChar: colon
Encoding: 58 58 29
Width: 500
GlyphClass: 2
Flags: W
LayerCount: 2
Fore
SplineSet
0 0 m 1,0,-1
 0 250 l 1,1,-1
 250 250 l 1,2,-1
 250 0 l 1,3,-1
 0 0 l 1,0,-1
0 500 m 1,4,-1
 0 750 l 1,5,-1
 250 750 l 1,6,-1
 250 500 l 1,7,-1
 0 500 l 1,4,-1
EndSplineSet
EndChar

StartChar: semicolon
Encoding: 59 59 30
Width: 750
GlyphClass: 2
Flags: W
LayerCount: 2
Fore
SplineSet
0 0 m 1,0,-1
 0 250 l 1,1,-1
 250 250 l 1,2,-1
 250 0 l 1,3,-1
 0 0 l 1,0,-1
250 750 m 1,4,-1
 250 1000 l 1,5,-1
 500 1000 l 1,6,-1
 500 750 l 1,7,-1
 250 750 l 1,4,-1
250 250 m 1,8,-1
 250 500 l 1,9,-1
 500 500 l 1,10,-1
 500 250 l 1,11,-1
 250 250 l 1,8,-1
EndSplineSet
EndChar

StartChar: less
Encoding: 60 60 31
Width: 750
GlyphClass: 2
Flags: W
LayerCount: 2
Fore
SplineSet
250 0 m 1,0,-1
 250 250 l 1,1,-1
 500 250 l 1,2,-1
 500 0 l 1,3,-1
 250 0 l 1,0,-1
250 250 m 1,4,-1
 0 250 l 1,5,-1
 0 500 l 1,6,-1
 250 500 l 1,7,-1
 250 250 l 1,4,-1
250 500 m 1,8,-1
 250 750 l 1,9,-1
 500 750 l 1,10,-1
 500 500 l 1,11,-1
 250 500 l 1,8,-1
EndSplineSet
EndChar

StartChar: equal
Encoding: 61 61 32
Width: 750
GlyphClass: 2
Flags: W
LayerCount: 2
Fore
SplineSet
500 250 m 1,0,-1
 500 0 l 1,1,2
 500 0 500 0 0 0 c 1,3,-1
 0 250 l 1,4,-1
 500 250 l 1,0,-1
500 750 m 1,5,-1
 500 500 l 1,6,7
 500 500 500 500 0 500 c 1,8,-1
 0 750 l 1,9,10
 0 750 0 750 500 750 c 1,5,-1
EndSplineSet
EndChar

StartChar: greater
Encoding: 62 62 33
Width: 750
GlyphClass: 2
Flags: W
LayerCount: 2
Fore
SplineSet
0 0 m 1,0,-1
 0 250 l 1,1,-1
 250 250 l 1,2,-1
 250 0 l 1,3,-1
 0 0 l 1,0,-1
250 250 m 1,4,-1
 250 500 l 1,5,-1
 500 500 l 1,6,-1
 500 250 l 1,7,-1
 250 250 l 1,4,-1
250 500 m 1,8,-1
 0 500 l 1,9,-1
 0 750 l 1,10,-1
 250 750 l 1,11,-1
 250 500 l 1,8,-1
EndSplineSet
EndChar

StartChar: question
Encoding: 63 63 34
Width: 750
GlyphClass: 2
Flags: W
LayerCount: 2
Fore
SplineSet
250 0 m 1,0,-1
 250 250 l 1,1,-1
 500 250 l 1,2,-1
 500 0 l 1,3,-1
 250 0 l 1,0,-1
250 500 m 1,4,-1
 250 750 l 1,5,-1
 0 750 l 1,6,-1
 0 1000 l 1,7,8
 0 1000 0 1000 500 1000 c 1,9,-1
 500 500 l 1,10,-1
 250 500 l 1,4,-1
EndSplineSet
EndChar

StartChar: at
Encoding: 64 64 35
Width: 1250
GlyphClass: 2
Flags: W
LayerCount: 2
Fore
SplineSet
0 0 m 1,0,1
 0 0 0 0 0 500 c 1,2,3
 0 500 0 500 500 500 c 1,4,-1
 500 250 l 1,5,-1
 750 250 l 1,6,-1
 750 0 l 1,7,-1
 0 0 l 1,0,1
750 250 m 1,8,9
 750 250 750 250 750 750 c 1,10,-1
 1000 750 l 1,11,12
 1000 750 1000 750 1000 250 c 1,13,-1
 750 250 l 1,8,9
750 750 m 1,14,15
 750 750 750 750 0 750 c 1,16,-1
 0 1000 l 1,17,18
 0 1000 0 1000 750 1000 c 1,19,-1
 750 750 l 1,14,15
EndSplineSet
EndChar

StartChar: A
Encoding: 65 65 36
Width: 1000
GlyphClass: 2
Flags: W
LayerCount: 2
Fore
SplineSet
500 0 m 1,0,-1
 500 250 l 1,1,-1
 250 250 l 1,2,-1
 250 0 l 1,3,-1
 0 0 l 1,4,5
 0 0 0 0 0 1000 c 1,6,7
 0 1000 0 1000 750 1000 c 1,8,-1
 750 0 l 1,9,-1
 500 0 l 1,0,-1
500 500 m 1,10,-1
 500 750 l 1,11,-1
 250 750 l 1,12,-1
 250 500 l 1,13,-1
 500 500 l 1,10,-1
EndSplineSet
EndChar

StartChar: B
Encoding: 66 66 37
Width: 1000
GlyphClass: 2
Flags: W
LayerCount: 2
Fore
SplineSet
0 0 m 1,0,1
 0 0 0 0 0 1000 c 1,2,-1
 250 1000 l 1,3,-1
 250 750 l 1,4,5
 250 750 250 750 750 750 c 1,6,7
 750 750 750 750 750 0 c 1,8,-1
 0 0 l 1,0,1
500 250 m 1,9,-1
 500 500 l 1,10,-1
 250 500 l 1,11,-1
 250 250 l 1,12,-1
 500 250 l 1,9,-1
EndSplineSet
EndChar

StartChar: C
Encoding: 67 67 38
Width: 1000
GlyphClass: 2
Flags: W
LayerCount: 2
Fore
SplineSet
750 250 m 1,0,-1
 750 0 l 1,1,2
 750 0 750 0 250 0 c 1,3,-1
 250 250 l 1,4,-1
 750 250 l 1,0,-1
250 250 m 1,5,-1
 0 250 l 1,6,7
 0 250 0 250 0 750 c 1,8,-1
 250 750 l 1,9,10
 250 750 250 750 250 250 c 1,5,-1
750 1000 m 1,11,-1
 750 750 l 1,12,13
 750 750 750 750 250 750 c 1,14,-1
 250 1000 l 1,15,16
 250 1000 250 1000 750 1000 c 1,11,-1
EndSplineSet
EndChar

StartChar: D
Encoding: 68 68 39
Width: 1000
GlyphClass: 2
Flags: W
LayerCount: 2
Fore
SplineSet
0 0 m 1,0,1
 0 0 0 0 0 1000 c 1,2,3
 0 1000 0 1000 500 1000 c 1,4,-1
 500 750 l 1,5,-1
 750 750 l 1,6,7
 750 750 750 750 750 250 c 1,8,-1
 500 250 l 1,9,10
 500 250 500 250 500 750 c 1,11,-1
 250 750 l 1,12,13
 250 750 250 750 250 250 c 1,14,-1
 500 250 l 1,15,-1
 500 0 l 1,16,-1
 0 0 l 1,0,1
EndSplineSet
EndChar

StartChar: E
Encoding: 69 69 40
Width: 1000
GlyphClass: 2
Flags: W
LayerCount: 2
Fore
SplineSet
750 250 m 1,0,-1
 750 0 l 1,1,2
 750 0 750 0 0 0 c 1,3,4
 0 0 0 0 0 1000 c 1,5,6
 0 1000 0 1000 750 1000 c 1,7,-1
 750 750 l 1,8,-1
 500 750 l 1,9,-1
 500 500 l 1,10,-1
 250 500 l 1,11,-1
 250 250 l 1,12,-1
 750 250 l 1,0,-1
EndSplineSet
EndChar

StartChar: F
Encoding: 70 70 41
Width: 1000
GlyphClass: 2
Flags: W
LayerCount: 2
Fore
SplineSet
0 0 m 1,0,1
 0 0 0 0 0 1000 c 1,2,3
 0 1000 0 1000 750 1000 c 1,4,-1
 750 750 l 1,5,-1
 250 750 l 1,6,-1
 250 500 l 1,7,-1
 500 500 l 1,8,-1
 500 250 l 1,9,-1
 250 250 l 1,10,-1
 250 0 l 1,11,-1
 0 0 l 1,0,1
EndSplineSet
EndChar

StartChar: G
Encoding: 71 71 42
Width: 1000
GlyphClass: 2
Flags: W
LayerCount: 2
Fore
SplineSet
250 0 m 1,0,-1
 250 250 l 1,1,-1
 500 250 l 1,2,-1
 500 500 l 1,3,-1
 750 500 l 1,4,5
 750 500 750 500 750 0 c 1,6,-1
 250 0 l 1,0,-1
250 250 m 1,7,-1
 0 250 l 1,8,9
 0 250 0 250 0 750 c 1,10,-1
 250 750 l 1,11,12
 250 750 250 750 250 250 c 1,7,-1
750 1000 m 1,13,-1
 750 750 l 1,14,15
 750 750 750 750 250 750 c 1,16,-1
 250 1000 l 1,17,18
 250 1000 250 1000 750 1000 c 1,13,-1
EndSplineSet
EndChar

StartChar: H
Encoding: 72 72 43
Width: 1000
GlyphClass: 2
Flags: W
LayerCount: 2
Fore
SplineSet
500 0 m 1,0,1
 500 0 500 0 500 500 c 1,2,-1
 250 500 l 1,3,4
 250 500 250 500 250 0 c 1,5,-1
 0 0 l 1,6,7
 0 0 0 0 0 1000 c 1,8,-1
 250 1000 l 1,9,-1
 250 750 l 1,10,-1
 500 750 l 1,11,-1
 500 1000 l 1,12,-1
 750 1000 l 1,13,-1
 750 0 l 1,14,-1
 500 0 l 1,0,1
EndSplineSet
EndChar

StartChar: I
Encoding: 73 73 44
Width: 1000
GlyphClass: 2
Flags: W
LayerCount: 2
Fore
SplineSet
0 0 m 1,0,-1
 0 250 l 1,1,-1
 250 250 l 1,2,3
 250 250 250 250 250 750 c 1,4,-1
 0 750 l 1,5,-1
 0 1000 l 1,6,7
 0 1000 0 1000 750 1000 c 1,8,-1
 750 750 l 1,9,-1
 500 750 l 1,10,11
 500 750 500 750 500 250 c 1,12,-1
 750 250 l 1,13,-1
 750 0 l 1,14,-1
 0 0 l 1,0,-1
EndSplineSet
EndChar

StartChar: J
Encoding: 74 74 45
Width: 750
GlyphClass: 2
Flags: W
LayerCount: 2
Fore
SplineSet
0 0 m 1,0,-1
 0 250 l 1,1,-1
 250 250 l 1,2,-1
 250 0 l 1,3,-1
 0 0 l 1,0,-1
250 250 m 1,4,5
 250 250 250 250 250 750 c 1,6,-1
 0 750 l 1,7,-1
 0 1000 l 1,8,9
 0 1000 0 1000 500 1000 c 1,10,-1
 500 250 l 1,11,-1
 250 250 l 1,4,5
EndSplineSet
EndChar

StartChar: K
Encoding: 75 75 46
Width: 1000
GlyphClass: 2
Flags: W
LayerCount: 2
Fore
SplineSet
500 0 m 1,0,-1
 500 250 l 1,1,-1
 750 250 l 1,2,-1
 750 0 l 1,3,-1
 500 0 l 1,0,-1
0 0 m 1,4,5
 0 0 0 0 0 1000 c 1,6,-1
 250 1000 l 1,7,-1
 250 500 l 1,8,-1
 500 500 l 1,9,-1
 500 250 l 1,10,-1
 250 250 l 1,11,-1
 250 0 l 1,12,-1
 0 0 l 1,4,5
500 500 m 1,13,-1
 500 750 l 1,14,-1
 750 750 l 1,15,-1
 750 500 l 1,16,-1
 500 500 l 1,13,-1
EndSplineSet
EndChar

StartChar: L
Encoding: 76 76 47
Width: 1000
GlyphClass: 2
Flags: W
LayerCount: 2
Fore
SplineSet
750 250 m 1,0,-1
 750 0 l 1,1,2
 750 0 750 0 0 0 c 1,3,4
 0 0 0 0 0 1000 c 1,5,-1
 250 1000 l 1,6,7
 250 1000 250 1000 250 250 c 1,8,-1
 750 250 l 1,0,-1
EndSplineSet
EndChar

StartChar: M
Encoding: 77 77 48
Width: 1500
GlyphClass: 2
Flags: W
LayerCount: 2
Fore
SplineSet
1000 0 m 1,0,1
 1000 0 1000 0 1000 500 c 1,2,-1
 750 500 l 1,3,-1
 750 250 l 1,4,-1
 500 250 l 1,5,-1
 500 500 l 1,6,-1
 750 500 l 1,7,-1
 750 750 l 1,8,-1
 1000 750 l 1,9,-1
 1000 1000 l 1,10,-1
 1250 1000 l 1,11,-1
 1250 0 l 1,12,-1
 1000 0 l 1,0,1
0 0 m 1,13,14
 0 0 0 0 0 1000 c 1,15,-1
 250 1000 l 1,16,-1
 250 750 l 1,17,-1
 500 750 l 1,18,-1
 500 500 l 1,19,-1
 250 500 l 1,20,21
 250 500 250 500 250 0 c 1,22,-1
 0 0 l 1,13,14
EndSplineSet
EndChar

StartChar: N
Encoding: 78 78 49
Width: 1000
GlyphClass: 2
Flags: W
LayerCount: 2
Fore
SplineSet
500 0 m 1,0,1
 500 0 500 0 500 750 c 1,2,-1
 250 750 l 1,3,4
 250 750 250 750 250 0 c 1,5,-1
 0 0 l 1,6,7
 0 0 0 0 0 1000 c 1,8,9
 0 1000 0 1000 750 1000 c 1,10,-1
 750 0 l 1,11,-1
 500 0 l 1,0,1
EndSplineSet
EndChar

StartChar: O
Encoding: 79 79 50
Width: 1250
GlyphClass: 2
Flags: W
LayerCount: 2
Fore
SplineSet
750 250 m 1,0,-1
 750 0 l 1,1,2
 750 0 750 0 250 0 c 1,3,-1
 250 250 l 1,4,-1
 750 250 l 1,0,-1
750 250 m 1,5,6
 750 250 750 250 750 750 c 1,7,-1
 1000 750 l 1,8,9
 1000 750 1000 750 1000 250 c 1,10,-1
 750 250 l 1,5,6
250 250 m 1,11,-1
 0 250 l 1,12,13
 0 250 0 250 0 750 c 1,14,-1
 250 750 l 1,15,16
 250 750 250 750 250 250 c 1,11,-1
750 750 m 1,17,18
 750 750 750 750 250 750 c 1,19,-1
 250 1000 l 1,20,21
 250 1000 250 1000 750 1000 c 1,22,-1
 750 750 l 1,17,18
EndSplineSet
EndChar

StartChar: P
Encoding: 80 80 51
Width: 1000
GlyphClass: 2
Flags: W
LayerCount: 2
Fore
SplineSet
0 0 m 1,0,1
 0 0 0 0 0 1000 c 1,2,3
 0 1000 0 1000 750 1000 c 1,4,5
 750 1000 750 1000 750 250 c 1,6,-1
 250 250 l 1,7,-1
 250 0 l 1,8,-1
 0 0 l 1,0,1
500 500 m 1,9,-1
 500 750 l 1,10,-1
 250 750 l 1,11,-1
 250 500 l 1,12,-1
 500 500 l 1,9,-1
EndSplineSet
EndChar

StartChar: Q
Encoding: 81 81 52
Width: 1000
GlyphClass: 2
Flags: W
LayerCount: 2
Fore
SplineSet
500 0 m 1,0,-1
 500 250 l 1,1,2
 500 250 500 250 0 250 c 1,3,4
 0 250 0 250 0 1000 c 1,5,6
 0 1000 0 1000 750 1000 c 1,7,-1
 750 0 l 1,8,-1
 500 0 l 1,0,-1
500 500 m 1,9,-1
 500 750 l 1,10,-1
 250 750 l 1,11,-1
 250 500 l 1,12,-1
 500 500 l 1,9,-1
EndSplineSet
EndChar

StartChar: R
Encoding: 82 82 53
Width: 1000
GlyphClass: 2
Flags: W
LayerCount: 2
Fore
SplineSet
500 0 m 1,0,-1
 500 250 l 1,1,-1
 750 250 l 1,2,-1
 750 0 l 1,3,-1
 500 0 l 1,0,-1
0 0 m 1,4,5
 0 0 0 0 0 1000 c 1,6,-1
 500 1000 l 1,7,-1
 500 750 l 1,8,-1
 750 750 l 1,9,-1
 750 500 l 1,10,-1
 500 500 l 1,11,-1
 500 750 l 1,12,-1
 250 750 l 1,13,-1
 250 500 l 1,14,-1
 500 500 l 1,15,-1
 500 250 l 1,16,-1
 250 250 l 1,17,-1
 250 0 l 1,18,-1
 0 0 l 1,4,5
EndSplineSet
EndChar

StartChar: S
Encoding: 83 83 54
Width: 1000
GlyphClass: 2
Flags: W
LayerCount: 2
Fore
SplineSet
0 0 m 1,0,-1
 0 250 l 1,1,2
 0 250 0 250 500 250 c 1,3,-1
 500 500 l 1,4,-1
 750 500 l 1,5,6
 750 500 750 500 750 0 c 1,7,-1
 0 0 l 1,0,-1
500 500 m 1,8,9
 500 500 500 500 0 500 c 1,10,11
 0 500 0 500 0 1000 c 1,12,13
 0 1000 0 1000 750 1000 c 1,14,-1
 750 750 l 1,15,-1
 500 750 l 1,16,-1
 500 500 l 1,8,9
EndSplineSet
EndChar

StartChar: T
Encoding: 84 84 55
Width: 1000
GlyphClass: 2
Flags: W
LayerCount: 2
Fore
SplineSet
250 0 m 1,0,1
 250 0 250 0 250 750 c 1,2,-1
 0 750 l 1,3,-1
 0 1000 l 1,4,5
 0 1000 0 1000 750 1000 c 1,6,-1
 750 750 l 1,7,-1
 500 750 l 1,8,-1
 500 0 l 1,9,-1
 250 0 l 1,0,1
EndSplineSet
EndChar

StartChar: U
Encoding: 85 85 56
Width: 1000
GlyphClass: 2
Flags: W
LayerCount: 2
Fore
SplineSet
0 0 m 1,0,1
 0 0 0 0 0 1000 c 1,2,-1
 250 1000 l 1,3,4
 250 1000 250 1000 250 250 c 1,5,-1
 500 250 l 1,6,7
 500 250 500 250 500 1000 c 1,8,-1
 750 1000 l 1,9,10
 750 1000 750 1000 750 0 c 1,11,-1
 0 0 l 1,0,1
EndSplineSet
EndChar

StartChar: V
Encoding: 86 86 57
Width: 1000
GlyphClass: 2
Flags: W
LayerCount: 2
Fore
SplineSet
250 0 m 1,0,-1
 250 250 l 1,1,-1
 500 250 l 1,2,-1
 500 0 l 1,3,-1
 250 0 l 1,0,-1
500 250 m 1,4,5
 500 250 500 250 500 1000 c 1,6,-1
 750 1000 l 1,7,-1
 750 250 l 1,8,-1
 500 250 l 1,4,5
250 250 m 1,9,-1
 0 250 l 1,10,11
 0 250 0 250 0 1000 c 1,12,-1
 250 1000 l 1,13,14
 250 1000 250 1000 250 250 c 1,9,-1
EndSplineSet
EndChar

StartChar: W
Encoding: 87 87 58
Width: 1500
GlyphClass: 2
Flags: W
LayerCount: 2
Fore
SplineSet
750 0 m 1,0,-1
 750 250 l 1,1,-1
 1000 250 l 1,2,-1
 1000 0 l 1,3,-1
 750 0 l 1,0,-1
250 0 m 1,4,-1
 250 250 l 1,5,-1
 500 250 l 1,6,-1
 500 0 l 1,7,-1
 250 0 l 1,4,-1
1000 250 m 1,8,9
 1000 250 1000 250 1000 1000 c 1,10,-1
 1250 1000 l 1,11,-1
 1250 250 l 1,12,-1
 1000 250 l 1,8,9
500 250 m 1,13,14
 500 250 500 250 500 750 c 1,15,-1
 750 750 l 1,16,17
 750 750 750 750 750 250 c 1,18,-1
 500 250 l 1,13,14
250 250 m 1,19,-1
 0 250 l 1,20,21
 0 250 0 250 0 1000 c 1,22,-1
 250 1000 l 1,23,24
 250 1000 250 1000 250 250 c 1,19,-1
EndSplineSet
EndChar

StartChar: X
Encoding: 88 88 59
Width: 1000
GlyphClass: 2
Flags: W
LayerCount: 2
Fore
SplineSet
500 0 m 1,0,1
 500 0 500 0 500 500 c 1,2,-1
 750 500 l 1,3,-1
 750 0 l 1,4,-1
 500 0 l 1,0,1
0 0 m 1,5,6
 0 0 0 0 0 500 c 1,7,-1
 250 500 l 1,8,9
 250 500 250 500 250 0 c 1,10,-1
 0 0 l 1,5,6
250 500 m 1,11,-1
 250 750 l 1,12,-1
 500 750 l 1,13,-1
 500 500 l 1,14,-1
 250 500 l 1,11,-1
500 750 m 1,15,-1
 500 1000 l 1,16,-1
 750 1000 l 1,17,-1
 750 750 l 1,18,-1
 500 750 l 1,15,-1
250 750 m 1,19,-1
 0 750 l 1,20,-1
 0 1000 l 1,21,-1
 250 1000 l 1,22,-1
 250 750 l 1,19,-1
EndSplineSet
EndChar

StartChar: Y
Encoding: 89 89 60
Width: 1000
GlyphClass: 2
Flags: W
LayerCount: 2
Fore
SplineSet
0 0 m 1,0,-1
 0 250 l 1,1,2
 0 250 0 250 500 250 c 1,3,-1
 500 500 l 1,4,5
 500 500 500 500 0 500 c 1,6,7
 0 500 0 500 0 1000 c 1,8,-1
 250 1000 l 1,9,-1
 250 750 l 1,10,-1
 500 750 l 1,11,-1
 500 1000 l 1,12,-1
 750 1000 l 1,13,-1
 750 750 l 1,14,15
 750 750 750 750 750 0 c 1,16,-1
 0 0 l 1,0,-1
EndSplineSet
EndChar

StartChar: Z
Encoding: 90 90 61
Width: 1000
GlyphClass: 2
Flags: W
LayerCount: 2
Fore
SplineSet
750 250 m 1,0,-1
 750 0 l 1,1,2
 750 0 750 0 0 0 c 1,3,4
 0 0 0 0 0 500 c 1,5,-1
 250 500 l 1,6,-1
 250 250 l 1,7,-1
 750 250 l 1,0,-1
250 500 m 1,8,-1
 250 750 l 1,9,-1
 0 750 l 1,10,-1
 0 1000 l 1,11,12
 0 1000 0 1000 750 1000 c 1,13,14
 750 1000 750 1000 750 500 c 1,15,16
 750 500 750 500 250 500 c 1,8,-1
EndSplineSet
EndChar

StartChar: bracketleft
Encoding: 91 91 62
Width: 750
GlyphClass: 2
Flags: W
LayerCount: 2
Fore
SplineSet
0 0 m 1,0,1
 0 0 0 0 0 1000 c 1,2,3
 0 1000 0 1000 500 1000 c 1,4,-1
 500 750 l 1,5,-1
 250 750 l 1,6,-1
 250 250 l 1,7,-1
 500 250 l 1,8,-1
 500 0 l 1,9,-1
 0 0 l 1,0,1
EndSplineSet
EndChar

StartChar: backslash
Encoding: 92 92 63
Width: 750
GlyphClass: 2
Flags: W
LayerCount: 2
Fore
SplineSet
250 0 m 1,0,1
 250 0 250 0 250 500 c 1,2,-1
 500 500 l 1,3,-1
 500 0 l 1,4,-1
 250 0 l 1,0,1
250 500 m 1,5,-1
 0 500 l 1,6,7
 0 500 0 500 0 1000 c 1,8,-1
 250 1000 l 1,9,10
 250 1000 250 1000 250 500 c 1,5,-1
EndSplineSet
EndChar

StartChar: bracketright
Encoding: 93 93 64
Width: 750
GlyphClass: 2
Flags: W
LayerCount: 2
Fore
SplineSet
0 0 m 1,0,-1
 0 250 l 1,1,-1
 250 250 l 1,2,3
 250 250 250 250 250 750 c 1,4,-1
 0 750 l 1,5,-1
 0 1000 l 1,6,7
 0 1000 0 1000 500 1000 c 1,8,9
 500 1000 500 1000 500 0 c 1,10,-1
 0 0 l 1,0,-1
EndSplineSet
EndChar

StartChar: asciicircum
Encoding: 94 94 65
Width: 1000
GlyphClass: 2
Flags: W
LayerCount: 2
Fore
SplineSet
500 500 m 1,0,-1
 500 750 l 1,1,-1
 750 750 l 1,2,-1
 750 500 l 1,3,-1
 500 500 l 1,0,-1
0 500 m 1,4,-1
 0 750 l 1,5,-1
 250 750 l 1,6,-1
 250 500 l 1,7,-1
 0 500 l 1,4,-1
250 750 m 1,8,-1
 250 1000 l 1,9,-1
 500 1000 l 1,10,-1
 500 750 l 1,11,-1
 250 750 l 1,8,-1
EndSplineSet
EndChar

StartChar: underscore
Encoding: 95 95 66
Width: 1000
GlyphClass: 2
Flags: W
LayerCount: 2
Fore
SplineSet
750 250 m 1,0,-1
 750 0 l 1,1,2
 750 0 750 0 0 0 c 1,3,-1
 0 250 l 1,4,-1
 750 250 l 1,0,-1
EndSplineSet
EndChar

StartChar: grave
Encoding: 96 96 67
Width: 750
GlyphClass: 2
Flags: W
LayerCount: 2
Fore
SplineSet
250 500 m 1,0,-1
 250 750 l 1,1,-1
 500 750 l 1,2,-1
 500 500 l 1,3,-1
 250 500 l 1,0,-1
250 750 m 1,4,-1
 0 750 l 1,5,-1
 0 1000 l 1,6,-1
 250 1000 l 1,7,-1
 250 750 l 1,4,-1
EndSplineSet
EndChar

StartChar: a
Encoding: 97 97 68
Width: 1000
GlyphClass: 2
Flags: W
LayerCount: 2
Fore
SplineSet
500 0 m 1,0,-1
 500 250 l 1,1,-1
 250 250 l 1,2,-1
 250 0 l 1,3,-1
 0 0 l 1,4,5
 0 0 0 0 0 1000 c 1,6,7
 0 1000 0 1000 750 1000 c 1,8,-1
 750 0 l 1,9,-1
 500 0 l 1,0,-1
500 500 m 1,10,-1
 500 750 l 1,11,-1
 250 750 l 1,12,-1
 250 500 l 1,13,-1
 500 500 l 1,10,-1
EndSplineSet
EndChar

StartChar: b
Encoding: 98 98 69
Width: 1000
GlyphClass: 2
Flags: W
LayerCount: 2
Fore
SplineSet
0 0 m 1,0,1
 0 0 0 0 0 1000 c 1,2,-1
 250 1000 l 1,3,-1
 250 750 l 1,4,5
 250 750 250 750 750 750 c 1,6,7
 750 750 750 750 750 0 c 1,8,-1
 0 0 l 1,0,1
500 250 m 1,9,-1
 500 500 l 1,10,-1
 250 500 l 1,11,-1
 250 250 l 1,12,-1
 500 250 l 1,9,-1
EndSplineSet
EndChar

StartChar: c
Encoding: 99 99 70
Width: 1000
GlyphClass: 2
Flags: W
LayerCount: 2
Fore
SplineSet
750 250 m 1,0,-1
 750 0 l 1,1,2
 750 0 750 0 250 0 c 1,3,-1
 250 250 l 1,4,-1
 750 250 l 1,0,-1
250 250 m 1,5,-1
 0 250 l 1,6,7
 0 250 0 250 0 750 c 1,8,-1
 250 750 l 1,9,10
 250 750 250 750 250 250 c 1,5,-1
750 1000 m 1,11,-1
 750 750 l 1,12,13
 750 750 750 750 250 750 c 1,14,-1
 250 1000 l 1,15,16
 250 1000 250 1000 750 1000 c 1,11,-1
EndSplineSet
EndChar

StartChar: d
Encoding: 100 100 71
Width: 1000
GlyphClass: 2
Flags: W
LayerCount: 2
Fore
SplineSet
0 0 m 1,0,1
 0 0 0 0 0 1000 c 1,2,3
 0 1000 0 1000 500 1000 c 1,4,-1
 500 750 l 1,5,-1
 750 750 l 1,6,7
 750 750 750 750 750 250 c 1,8,-1
 500 250 l 1,9,10
 500 250 500 250 500 750 c 1,11,-1
 250 750 l 1,12,13
 250 750 250 750 250 250 c 1,14,-1
 500 250 l 1,15,-1
 500 0 l 1,16,-1
 0 0 l 1,0,1
EndSplineSet
EndChar

StartChar: e
Encoding: 101 101 72
Width: 1000
GlyphClass: 2
Flags: W
LayerCount: 2
Fore
SplineSet
750 250 m 1,0,-1
 750 0 l 1,1,2
 750 0 750 0 0 0 c 1,3,4
 0 0 0 0 0 1000 c 1,5,6
 0 1000 0 1000 750 1000 c 1,7,-1
 750 750 l 1,8,-1
 500 750 l 1,9,-1
 500 500 l 1,10,-1
 250 500 l 1,11,-1
 250 250 l 1,12,-1
 750 250 l 1,0,-1
EndSplineSet
EndChar

StartChar: f
Encoding: 102 102 73
Width: 1000
GlyphClass: 2
Flags: W
LayerCount: 2
Fore
SplineSet
0 0 m 1,0,1
 0 0 0 0 0 1000 c 1,2,3
 0 1000 0 1000 750 1000 c 1,4,-1
 750 750 l 1,5,-1
 250 750 l 1,6,-1
 250 500 l 1,7,-1
 500 500 l 1,8,-1
 500 250 l 1,9,-1
 250 250 l 1,10,-1
 250 0 l 1,11,-1
 0 0 l 1,0,1
EndSplineSet
EndChar

StartChar: g
Encoding: 103 103 74
Width: 1000
GlyphClass: 2
Flags: W
LayerCount: 2
Fore
SplineSet
250 0 m 1,0,-1
 250 250 l 1,1,-1
 500 250 l 1,2,-1
 500 500 l 1,3,-1
 750 500 l 1,4,5
 750 500 750 500 750 0 c 1,6,-1
 250 0 l 1,0,-1
250 250 m 1,7,-1
 0 250 l 1,8,9
 0 250 0 250 0 750 c 1,10,-1
 250 750 l 1,11,12
 250 750 250 750 250 250 c 1,7,-1
750 1000 m 1,13,-1
 750 750 l 1,14,15
 750 750 750 750 250 750 c 1,16,-1
 250 1000 l 1,17,18
 250 1000 250 1000 750 1000 c 1,13,-1
EndSplineSet
EndChar

StartChar: h
Encoding: 104 104 75
Width: 1000
GlyphClass: 2
Flags: W
LayerCount: 2
Fore
SplineSet
500 0 m 1,0,1
 500 0 500 0 500 500 c 1,2,-1
 250 500 l 1,3,4
 250 500 250 500 250 0 c 1,5,-1
 0 0 l 1,6,7
 0 0 0 0 0 1000 c 1,8,-1
 250 1000 l 1,9,-1
 250 750 l 1,10,-1
 500 750 l 1,11,-1
 500 1000 l 1,12,-1
 750 1000 l 1,13,-1
 750 0 l 1,14,-1
 500 0 l 1,0,1
EndSplineSet
EndChar

StartChar: i
Encoding: 105 105 76
Width: 1000
GlyphClass: 2
Flags: W
LayerCount: 2
Fore
SplineSet
0 0 m 1,0,-1
 0 250 l 1,1,-1
 250 250 l 1,2,3
 250 250 250 250 250 750 c 1,4,-1
 0 750 l 1,5,-1
 0 1000 l 1,6,7
 0 1000 0 1000 750 1000 c 1,8,-1
 750 750 l 1,9,-1
 500 750 l 1,10,11
 500 750 500 750 500 250 c 1,12,-1
 750 250 l 1,13,-1
 750 0 l 1,14,-1
 0 0 l 1,0,-1
EndSplineSet
EndChar

StartChar: j
Encoding: 106 106 77
Width: 750
GlyphClass: 2
Flags: W
LayerCount: 2
Fore
SplineSet
0 0 m 1,0,-1
 0 250 l 1,1,-1
 250 250 l 1,2,-1
 250 0 l 1,3,-1
 0 0 l 1,0,-1
250 250 m 1,4,5
 250 250 250 250 250 750 c 1,6,-1
 0 750 l 1,7,-1
 0 1000 l 1,8,9
 0 1000 0 1000 500 1000 c 1,10,-1
 500 250 l 1,11,-1
 250 250 l 1,4,5
EndSplineSet
EndChar

StartChar: k
Encoding: 107 107 78
Width: 1000
GlyphClass: 2
Flags: W
LayerCount: 2
Fore
SplineSet
500 0 m 1,0,-1
 500 250 l 1,1,-1
 750 250 l 1,2,-1
 750 0 l 1,3,-1
 500 0 l 1,0,-1
0 0 m 1,4,5
 0 0 0 0 0 1000 c 1,6,-1
 250 1000 l 1,7,-1
 250 500 l 1,8,-1
 500 500 l 1,9,-1
 500 250 l 1,10,-1
 250 250 l 1,11,-1
 250 0 l 1,12,-1
 0 0 l 1,4,5
500 500 m 1,13,-1
 500 750 l 1,14,-1
 750 750 l 1,15,-1
 750 500 l 1,16,-1
 500 500 l 1,13,-1
EndSplineSet
EndChar

StartChar: l
Encoding: 108 108 79
Width: 1000
GlyphClass: 2
Flags: W
LayerCount: 2
Fore
SplineSet
750 250 m 1,0,-1
 750 0 l 1,1,2
 750 0 750 0 0 0 c 1,3,4
 0 0 0 0 0 1000 c 1,5,-1
 250 1000 l 1,6,7
 250 1000 250 1000 250 250 c 1,8,-1
 750 250 l 1,0,-1
EndSplineSet
EndChar

StartChar: m
Encoding: 109 109 80
Width: 1500
GlyphClass: 2
Flags: W
LayerCount: 2
Fore
SplineSet
1000 0 m 1,0,1
 1000 0 1000 0 1000 500 c 1,2,-1
 750 500 l 1,3,-1
 750 250 l 1,4,-1
 500 250 l 1,5,-1
 500 500 l 1,6,-1
 750 500 l 1,7,-1
 750 750 l 1,8,-1
 1000 750 l 1,9,-1
 1000 1000 l 1,10,-1
 1250 1000 l 1,11,-1
 1250 0 l 1,12,-1
 1000 0 l 1,0,1
0 0 m 1,13,14
 0 0 0 0 0 1000 c 1,15,-1
 250 1000 l 1,16,-1
 250 750 l 1,17,-1
 500 750 l 1,18,-1
 500 500 l 1,19,-1
 250 500 l 1,20,21
 250 500 250 500 250 0 c 1,22,-1
 0 0 l 1,13,14
EndSplineSet
EndChar

StartChar: n
Encoding: 110 110 81
Width: 1000
GlyphClass: 2
Flags: W
LayerCount: 2
Fore
SplineSet
500 0 m 1,0,1
 500 0 500 0 500 750 c 1,2,-1
 250 750 l 1,3,4
 250 750 250 750 250 0 c 1,5,-1
 0 0 l 1,6,7
 0 0 0 0 0 1000 c 1,8,9
 0 1000 0 1000 750 1000 c 1,10,-1
 750 0 l 1,11,-1
 500 0 l 1,0,1
EndSplineSet
EndChar

StartChar: o
Encoding: 111 111 82
Width: 1250
GlyphClass: 2
Flags: W
LayerCount: 2
Fore
SplineSet
750 250 m 1,0,-1
 750 0 l 1,1,2
 750 0 750 0 250 0 c 1,3,-1
 250 250 l 1,4,-1
 750 250 l 1,0,-1
750 250 m 1,5,6
 750 250 750 250 750 750 c 1,7,-1
 1000 750 l 1,8,9
 1000 750 1000 750 1000 250 c 1,10,-1
 750 250 l 1,5,6
250 250 m 1,11,-1
 0 250 l 1,12,13
 0 250 0 250 0 750 c 1,14,-1
 250 750 l 1,15,16
 250 750 250 750 250 250 c 1,11,-1
750 750 m 1,17,18
 750 750 750 750 250 750 c 1,19,-1
 250 1000 l 1,20,21
 250 1000 250 1000 750 1000 c 1,22,-1
 750 750 l 1,17,18
EndSplineSet
EndChar

StartChar: p
Encoding: 112 112 83
Width: 1000
GlyphClass: 2
Flags: W
LayerCount: 2
Fore
SplineSet
0 0 m 1,0,1
 0 0 0 0 0 1000 c 1,2,3
 0 1000 0 1000 750 1000 c 1,4,5
 750 1000 750 1000 750 250 c 1,6,-1
 250 250 l 1,7,-1
 250 0 l 1,8,-1
 0 0 l 1,0,1
500 500 m 1,9,-1
 500 750 l 1,10,-1
 250 750 l 1,11,-1
 250 500 l 1,12,-1
 500 500 l 1,9,-1
EndSplineSet
EndChar

StartChar: q
Encoding: 113 113 84
Width: 1000
GlyphClass: 2
Flags: W
LayerCount: 2
Fore
SplineSet
500 0 m 1,0,-1
 500 250 l 1,1,2
 500 250 500 250 0 250 c 1,3,4
 0 250 0 250 0 1000 c 1,5,6
 0 1000 0 1000 750 1000 c 1,7,-1
 750 0 l 1,8,-1
 500 0 l 1,0,-1
500 500 m 1,9,-1
 500 750 l 1,10,-1
 250 750 l 1,11,-1
 250 500 l 1,12,-1
 500 500 l 1,9,-1
EndSplineSet
EndChar

StartChar: r
Encoding: 114 114 85
Width: 1000
GlyphClass: 2
Flags: W
LayerCount: 2
Fore
SplineSet
500 0 m 1,0,-1
 500 250 l 1,1,-1
 750 250 l 1,2,-1
 750 0 l 1,3,-1
 500 0 l 1,0,-1
0 0 m 1,4,5
 0 0 0 0 0 1000 c 1,6,-1
 500 1000 l 1,7,-1
 500 750 l 1,8,-1
 750 750 l 1,9,-1
 750 500 l 1,10,-1
 500 500 l 1,11,-1
 500 750 l 1,12,-1
 250 750 l 1,13,-1
 250 500 l 1,14,-1
 500 500 l 1,15,-1
 500 250 l 1,16,-1
 250 250 l 1,17,-1
 250 0 l 1,18,-1
 0 0 l 1,4,5
EndSplineSet
EndChar

StartChar: s
Encoding: 115 115 86
Width: 1000
GlyphClass: 2
Flags: W
LayerCount: 2
Fore
SplineSet
0 0 m 1,0,-1
 0 250 l 1,1,2
 0 250 0 250 500 250 c 1,3,-1
 500 500 l 1,4,-1
 750 500 l 1,5,6
 750 500 750 500 750 0 c 1,7,-1
 0 0 l 1,0,-1
500 500 m 1,8,9
 500 500 500 500 0 500 c 1,10,11
 0 500 0 500 0 1000 c 1,12,13
 0 1000 0 1000 750 1000 c 1,14,-1
 750 750 l 1,15,-1
 500 750 l 1,16,-1
 500 500 l 1,8,9
EndSplineSet
EndChar

StartChar: t
Encoding: 116 116 87
Width: 1000
GlyphClass: 2
Flags: W
LayerCount: 2
Fore
SplineSet
250 0 m 1,0,1
 250 0 250 0 250 750 c 1,2,-1
 0 750 l 1,3,-1
 0 1000 l 1,4,5
 0 1000 0 1000 750 1000 c 1,6,-1
 750 750 l 1,7,-1
 500 750 l 1,8,-1
 500 0 l 1,9,-1
 250 0 l 1,0,1
EndSplineSet
EndChar

StartChar: u
Encoding: 117 117 88
Width: 1000
GlyphClass: 2
Flags: W
LayerCount: 2
Fore
SplineSet
0 0 m 1,0,1
 0 0 0 0 0 1000 c 1,2,-1
 250 1000 l 1,3,4
 250 1000 250 1000 250 250 c 1,5,-1
 500 250 l 1,6,7
 500 250 500 250 500 1000 c 1,8,-1
 750 1000 l 1,9,10
 750 1000 750 1000 750 0 c 1,11,-1
 0 0 l 1,0,1
EndSplineSet
EndChar

StartChar: v
Encoding: 118 118 89
Width: 1000
GlyphClass: 2
Flags: W
LayerCount: 2
Fore
SplineSet
250 0 m 1,0,-1
 250 250 l 1,1,-1
 500 250 l 1,2,-1
 500 0 l 1,3,-1
 250 0 l 1,0,-1
500 250 m 1,4,5
 500 250 500 250 500 1000 c 1,6,-1
 750 1000 l 1,7,-1
 750 250 l 1,8,-1
 500 250 l 1,4,5
250 250 m 1,9,-1
 0 250 l 1,10,11
 0 250 0 250 0 1000 c 1,12,-1
 250 1000 l 1,13,14
 250 1000 250 1000 250 250 c 1,9,-1
EndSplineSet
EndChar

StartChar: w
Encoding: 119 119 90
Width: 1500
GlyphClass: 2
Flags: W
LayerCount: 2
Fore
SplineSet
750 0 m 1,0,-1
 750 250 l 1,1,-1
 1000 250 l 1,2,-1
 1000 0 l 1,3,-1
 750 0 l 1,0,-1
250 0 m 1,4,-1
 250 250 l 1,5,-1
 500 250 l 1,6,-1
 500 0 l 1,7,-1
 250 0 l 1,4,-1
1000 250 m 1,8,9
 1000 250 1000 250 1000 1000 c 1,10,-1
 1250 1000 l 1,11,-1
 1250 250 l 1,12,-1
 1000 250 l 1,8,9
500 250 m 1,13,14
 500 250 500 250 500 750 c 1,15,-1
 750 750 l 1,16,17
 750 750 750 750 750 250 c 1,18,-1
 500 250 l 1,13,14
250 250 m 1,19,-1
 0 250 l 1,20,21
 0 250 0 250 0 1000 c 1,22,-1
 250 1000 l 1,23,24
 250 1000 250 1000 250 250 c 1,19,-1
EndSplineSet
EndChar

StartChar: x
Encoding: 120 120 91
Width: 1000
GlyphClass: 2
Flags: W
LayerCount: 2
Fore
SplineSet
500 0 m 1,0,1
 500 0 500 0 500 500 c 1,2,-1
 750 500 l 1,3,-1
 750 0 l 1,4,-1
 500 0 l 1,0,1
0 0 m 1,5,6
 0 0 0 0 0 500 c 1,7,-1
 250 500 l 1,8,9
 250 500 250 500 250 0 c 1,10,-1
 0 0 l 1,5,6
250 500 m 1,11,-1
 250 750 l 1,12,-1
 500 750 l 1,13,-1
 500 500 l 1,14,-1
 250 500 l 1,11,-1
500 750 m 1,15,-1
 500 1000 l 1,16,-1
 750 1000 l 1,17,-1
 750 750 l 1,18,-1
 500 750 l 1,15,-1
250 750 m 1,19,-1
 0 750 l 1,20,-1
 0 1000 l 1,21,-1
 250 1000 l 1,22,-1
 250 750 l 1,19,-1
EndSplineSet
EndChar

StartChar: y
Encoding: 121 121 92
Width: 1000
GlyphClass: 2
Flags: W
LayerCount: 2
Fore
SplineSet
0 0 m 1,0,-1
 0 250 l 1,1,2
 0 250 0 250 500 250 c 1,3,-1
 500 500 l 1,4,5
 500 500 500 500 0 500 c 1,6,7
 0 500 0 500 0 1000 c 1,8,-1
 250 1000 l 1,9,-1
 250 750 l 1,10,-1
 500 750 l 1,11,-1
 500 1000 l 1,12,-1
 750 1000 l 1,13,-1
 750 750 l 1,14,15
 750 750 750 750 750 0 c 1,16,-1
 0 0 l 1,0,-1
EndSplineSet
EndChar

StartChar: z
Encoding: 122 122 93
Width: 1000
GlyphClass: 2
Flags: W
LayerCount: 2
Fore
SplineSet
750 250 m 1,0,-1
 750 0 l 1,1,2
 750 0 750 0 0 0 c 1,3,4
 0 0 0 0 0 500 c 1,5,-1
 250 500 l 1,6,-1
 250 250 l 1,7,-1
 750 250 l 1,0,-1
250 500 m 1,8,-1
 250 750 l 1,9,-1
 0 750 l 1,10,-1
 0 1000 l 1,11,12
 0 1000 0 1000 750 1000 c 1,13,14
 750 1000 750 1000 750 500 c 1,15,16
 750 500 750 500 250 500 c 1,8,-1
EndSplineSet
EndChar

StartChar: braceleft
Encoding: 123 123 94
Width: 750
GlyphClass: 2
Flags: W
LayerCount: 2
Fore
SplineSet
250 0 m 1,0,-1
 250 250 l 1,1,-1
 500 250 l 1,2,-1
 500 0 l 1,3,-1
 250 0 l 1,0,-1
250 250 m 1,4,-1
 0 250 l 1,5,6
 0 250 0 250 0 750 c 1,7,-1
 250 750 l 1,8,-1
 250 250 l 1,4,-1
250 750 m 1,9,-1
 250 1000 l 1,10,-1
 500 1000 l 1,11,-1
 500 750 l 1,12,-1
 250 750 l 1,9,-1
EndSplineSet
EndChar

StartChar: bar
Encoding: 124 124 95
Width: 500
GlyphClass: 2
Flags: W
LayerCount: 2
Fore
SplineSet
0 0 m 1,0,1
 0 0 0 0 0 1000 c 1,2,-1
 250 1000 l 1,3,-1
 250 0 l 1,4,-1
 0 0 l 1,0,1
EndSplineSet
EndChar

StartChar: braceright
Encoding: 125 125 96
Width: 750
GlyphClass: 2
Flags: W
LayerCount: 2
Fore
SplineSet
0 0 m 1,0,-1
 0 250 l 1,1,-1
 250 250 l 1,2,-1
 250 0 l 1,3,-1
 0 0 l 1,0,-1
250 250 m 1,4,5
 250 250 250 250 250 750 c 1,6,-1
 500 750 l 1,7,-1
 500 250 l 1,8,-1
 250 250 l 1,4,5
250 750 m 1,9,-1
 0 750 l 1,10,-1
 0 1000 l 1,11,-1
 250 1000 l 1,12,-1
 250 750 l 1,9,-1
EndSplineSet
EndChar

StartChar: asciitilde
Encoding: 126 126 97
Width: 1250
GlyphClass: 2
Flags: W
LayerCount: 2
Fore
SplineSet
500 250 m 1,0,-1
 500 500 l 1,1,-1
 750 500 l 1,2,-1
 750 250 l 1,3,-1
 500 250 l 1,0,-1
0 250 m 1,4,-1
 0 500 l 1,5,-1
 250 500 l 1,6,-1
 250 250 l 1,7,-1
 0 250 l 1,4,-1
750 500 m 1,8,-1
 750 750 l 1,9,-1
 1000 750 l 1,10,-1
 1000 500 l 1,11,-1
 750 500 l 1,8,-1
250 500 m 1,12,-1
 250 750 l 1,13,-1
 500 750 l 1,14,-1
 500 500 l 1,15,-1
 250 500 l 1,12,-1
EndSplineSet
EndChar

